<svg width="144" height="56" viewBox="0 0 144 56" fill="none" xmlns="http://www.w3.org/2000/svg">
<path d="M44 20V37.6C44.0013 38.4408 43.8367 39.2737 43.5155 40.0507C43.1944 40.8278 42.723 41.5339 42.1284 42.1284C41.5339 42.723 40.8278 43.1944 40.0507 43.5155C39.2737 43.8367 38.4408 44.0013 37.6 44H18.4C17.5592 44.0013 16.7264 43.8367 15.9493 43.5155C15.1722 43.1944 14.4661 42.723 13.8716 42.1284C13.277 41.5339 12.8057 40.8278 12.4845 40.0507C12.1633 39.2737 11.9987 38.4408 12 37.6V18.4C11.9987 17.5592 12.1633 16.7264 12.4845 15.9493C12.8057 15.1722 13.277 14.4661 13.8716 13.8716C14.4661 13.277 15.1722 12.8057 15.9493 12.4845C16.7264 12.1633 17.5592 11.9987 18.4 12H37.6C38.4457 11.9988 39.2832 12.1652 40.0642 12.4896C40.8451 12.814 41.5541 13.29 42.15 13.89L28 28L23.76 23.8C23.2296 23.2696 22.5102 22.9716 21.76 22.9716C21.0099 22.9716 20.2904 23.2696 19.76 23.8C19.2296 24.3304 18.9316 25.0499 18.9316 25.8C18.9316 26.1714 19.0047 26.5392 19.1469 26.8824C19.289 27.2256 19.4974 27.5374 19.76 27.8L26 34C26.2607 34.2661 26.5719 34.4775 26.9153 34.6218C27.2587 34.7661 27.6275 34.8404 28 34.8404C28.3725 34.8404 28.7413 34.7661 29.0847 34.6218C29.4281 34.4775 29.7393 34.2661 30 34L44 20Z" fill="#1654BB"/>
<path d="M44.0001 18.4001V20.0001L30.0001 34.0001C29.7394 34.2662 29.4282 34.4776 29.0848 34.6219C28.7414 34.7662 28.3726 34.8405 28.0001 34.8405C27.6276 34.8405 27.2588 34.7662 26.9154 34.6219C26.572 34.4776 26.2608 34.2662 26.0001 34.0001L19.8001 27.7601C19.5375 27.4975 19.3291 27.1857 19.187 26.8425C19.0448 26.4994 18.9717 26.1316 18.9717 25.7601C18.9717 25.01 19.2697 24.2906 19.8001 23.7601C20.3305 23.2297 21.05 22.9317 21.8001 22.9317C22.5503 22.9317 23.2697 23.2297 23.8001 23.7601L28.0001 28.0001L42.1501 13.8901C43.3366 15.0912 44.0014 16.7118 44.0001 18.4001Z" fill="white"/>
<path d="M70.3102 23.0699H64.3102V37.8299H59.4702V23.0699H53.4702V19.3499H70.3102V23.0699ZM81.8402 25.4699C82.5109 26.1845 83.0289 27.0284 83.3624 27.95C83.696 28.8716 83.8381 29.8515 83.7802 30.8299C83.8375 31.8082 83.6951 32.7879 83.3616 33.7094C83.0281 34.6309 82.5104 35.4749 81.8402 36.1899C81.1057 36.8572 80.2452 37.3708 79.3092 37.7006C78.3733 38.0303 77.3808 38.1695 76.3902 38.1099C75.4093 38.1636 74.4275 38.0215 73.5021 37.6919C72.5767 37.3622 71.7262 36.8516 71.0002 36.1899C70.3178 35.4809 69.7882 34.6393 69.4442 33.7173C69.1001 32.7954 68.949 31.8126 69.0002 30.8299C68.9478 29.847 69.0984 28.8639 69.4425 27.9417C69.7865 27.0196 70.3168 26.1782 71.0002 25.4699C71.7322 24.8019 72.5909 24.2877 73.5254 23.9579C74.4599 23.6281 75.4511 23.4893 76.4402 23.5499C77.4225 23.497 78.4056 23.6395 79.3325 23.969C80.2594 24.2986 81.1118 24.8087 81.8402 25.4699V25.4699ZM74.4002 27.8599C73.897 28.7753 73.6744 29.8187 73.7602 30.8599C73.6744 31.901 73.897 32.9444 74.4002 33.8599C74.6452 34.152 74.9512 34.387 75.2967 34.5482C75.6423 34.7094 76.0189 34.7929 76.4002 34.7929C76.7815 34.7929 77.1582 34.7094 77.5037 34.5482C77.8492 34.387 78.1552 34.152 78.4002 33.8599C78.9035 32.9444 79.1261 31.901 79.0402 30.8599C79.1261 29.8187 78.9035 28.7753 78.4002 27.8599C78.1552 27.5677 77.8492 27.3327 77.5037 27.1715C77.1582 27.0103 76.7815 26.9268 76.4002 26.9268C76.0189 26.9268 75.6423 27.0103 75.2967 27.1715C74.9512 27.3327 74.6452 27.5677 74.4002 27.8599ZM100.78 17.8599V37.8299H96.5002L96.3302 35.1699C95.9505 36.0453 95.3253 36.7921 94.5302 37.3199C93.7102 37.854 92.7486 38.1292 91.7702 38.1099C90.9629 38.1488 90.1578 37.996 89.4209 37.664C88.6839 37.332 88.036 36.8303 87.5302 36.1999C86.4235 34.6553 85.8831 32.7764 86.0002 30.8799C85.8822 28.9569 86.4256 27.0513 87.5402 25.4799C88.0476 24.8448 88.6981 24.3389 89.4385 24.0034C90.1789 23.668 90.9882 23.5125 91.8002 23.5499C92.6979 23.5233 93.5828 23.7672 94.3402 24.2499C95.0572 24.7321 95.6307 25.3989 96.0002 26.1799V17.8899L100.78 17.8599ZM95.2502 33.7799C95.7496 33.084 96.0125 32.2463 96.0002 31.3899V30.2699C96.0046 29.4146 95.7347 28.5805 95.2302 27.8899C95.013 27.6155 94.734 27.3964 94.4159 27.2505C94.0979 27.1045 93.7499 27.0357 93.4002 27.0499C93.0165 27.0238 92.6324 27.0943 92.283 27.255C91.9336 27.4158 91.6301 27.6615 91.4002 27.9699C90.885 28.8306 90.6475 29.8293 90.7202 30.8299C90.6456 31.8274 90.8833 32.8234 91.4002 33.6799C91.6283 33.9907 91.9312 34.2389 92.2809 34.4015C92.6305 34.5641 93.0155 34.6358 93.4002 34.6099C93.7521 34.6268 94.1031 34.5604 94.4245 34.4162C94.746 34.272 95.0288 34.0539 95.2502 33.7799V33.7799ZM115.84 25.4699C116.511 26.1845 117.029 27.0284 117.362 27.95C117.696 28.8716 117.838 29.8515 117.78 30.8299C117.838 31.8082 117.695 32.7879 117.362 33.7094C117.028 34.6309 116.51 35.4749 115.84 36.1899C114.298 37.4325 112.376 38.1101 110.395 38.1101C108.414 38.1101 106.493 37.4325 104.95 36.1899C104.268 35.4809 103.738 34.6393 103.394 33.7173C103.05 32.7954 102.899 31.8126 102.95 30.8299C102.898 29.847 103.048 28.8639 103.392 27.9417C103.737 27.0196 104.267 26.1782 104.95 25.4699C106.493 24.2272 108.414 23.5496 110.395 23.5496C112.376 23.5496 114.298 24.2272 115.84 25.4699ZM108.4 27.8599C107.897 28.7753 107.674 29.8187 107.76 30.8599C107.674 31.901 107.897 32.9444 108.4 33.8599C108.645 34.152 108.951 34.387 109.297 34.5482C109.642 34.7094 110.019 34.7929 110.4 34.7929C110.782 34.7929 111.158 34.7094 111.504 34.5482C111.849 34.387 112.155 34.152 112.4 33.8599C112.903 32.9444 113.126 31.901 113.04 30.8599C113.126 29.8187 112.903 28.7753 112.4 27.8599C112.155 27.5677 111.849 27.3327 111.504 27.1715C111.158 27.0103 110.782 26.9268 110.4 26.9268C110.019 26.9268 109.642 27.0103 109.297 27.1715C108.951 27.3327 108.645 27.5677 108.4 27.8599V27.8599ZM119 35.6399L121.46 32.9999C121.905 33.6786 122.527 34.2233 123.258 34.5757C123.989 34.928 124.802 35.0746 125.61 34.9999C126.136 35.0253 126.662 34.9366 127.15 34.7399C127.304 34.6888 127.44 34.5931 127.54 34.4649C127.639 34.3367 127.699 34.1818 127.71 34.0199C127.71 33.7599 127.52 33.5299 127.13 33.3399C126.491 33.0627 125.819 32.8678 125.13 32.7599C123.536 32.5162 122.018 31.9145 120.69 30.9999C120.263 30.6672 119.92 30.2386 119.688 29.7487C119.457 29.2588 119.345 28.7213 119.36 28.1799C119.367 27.3619 119.633 26.5672 120.12 25.9099C120.706 25.1357 121.495 24.5401 122.4 24.1899C123.579 23.7206 124.842 23.4961 126.11 23.5299C127.455 23.4826 128.795 23.7071 130.05 24.1899C131.043 24.6154 131.898 25.3077 132.52 26.1899L130.06 28.5999C129.661 27.9918 129.109 27.4988 128.46 27.1699C127.767 26.8535 127.012 26.6996 126.25 26.7199C125.709 26.6911 125.17 26.7977 124.68 27.0299C124.526 27.0923 124.391 27.1964 124.293 27.3305C124.194 27.4647 124.134 27.6238 124.12 27.7899C124.12 28.0699 124.32 28.2999 124.7 28.4999C125.339 28.7767 126.011 28.9684 126.7 29.0699C128.282 29.2536 129.801 29.7975 131.14 30.6599C131.581 30.9938 131.935 31.4289 132.171 31.9285C132.408 32.4281 132.521 32.9774 132.5 33.5299C132.51 34.1798 132.36 34.8222 132.061 35.3997C131.763 35.9773 131.326 36.472 130.79 36.8399C129.305 37.7936 127.551 38.2425 125.79 38.1199C122.597 38.1132 120.334 37.2865 119 35.6399Z" fill="#1654BB"/>
</svg>
