<svg width="40" height="40" viewBox="0 0 40 40" fill="none" xmlns="http://www.w3.org/2000/svg">
<path d="M36 12V29.6C36.0013 30.4408 35.8367 31.2737 35.5155 32.0507C35.1944 32.8278 34.723 33.5339 34.1284 34.1284C33.5339 34.723 32.8278 35.1944 32.0507 35.5155C31.2737 35.8367 30.4408 36.0013 29.6 36H10.4C9.55918 36.0013 8.72635 35.8367 7.94928 35.5155C7.1722 35.1944 6.46614 34.723 5.87159 34.1284C5.27703 33.5339 4.80566 32.8278 4.4845 32.0507C4.16333 31.2737 3.99869 30.4408 4.00001 29.6V10.4C3.99869 9.55918 4.16333 8.72635 4.4845 7.94928C4.80566 7.1722 5.27703 6.46614 5.87159 5.87159C6.46614 5.27703 7.1722 4.80566 7.94928 4.4845C8.72635 4.16333 9.55918 3.99869 10.4 4.00001H29.6C30.4457 3.99881 31.2832 4.16522 32.0642 4.48962C32.8451 4.81403 33.5541 5.28999 34.15 5.89001L20 20L15.76 15.8C15.2296 15.2696 14.5102 14.9716 13.76 14.9716C13.0099 14.9716 12.2904 15.2696 11.76 15.8C11.2296 16.3304 10.9316 17.0499 10.9316 17.8C10.9316 18.5502 11.2296 19.2696 11.76 19.8L18 26C18.2607 26.2661 18.5719 26.4775 18.9153 26.6218C19.2587 26.7661 19.6275 26.8404 20 26.8404C20.3725 26.8404 20.7413 26.7661 21.0847 26.6218C21.4281 26.4775 21.7393 26.2661 22 26L36 12Z" fill="#1654BB"/>
<path d="M36.0001 10.4001V12.0001L22.0001 26.0001C21.7394 26.2662 21.4282 26.4776 21.0848 26.6219C20.7414 26.7662 20.3726 26.8405 20.0001 26.8405C19.6276 26.8405 19.2588 26.7662 18.9154 26.6219C18.572 26.4776 18.2608 26.2662 18.0001 26.0001L11.8001 19.7601C11.2697 19.2297 10.9717 18.5103 10.9717 17.7601C10.9717 17.01 11.2697 16.2906 11.8001 15.7601C12.3305 15.2297 13.05 14.9317 13.8001 14.9317C14.5503 14.9317 15.2697 15.2297 15.8001 15.7601L20.0001 20.0001L34.1501 5.89014C35.3366 7.09118 36.0014 8.71183 36.0001 10.4001V10.4001Z" fill="white"/>
</svg>
